# xmcd
#
# Track frame offsets: 
#        150
#        18500
#        36357
#        55160
#        73318
#        84021
#        98373
#        120117
#        135547
#        149792
#        169275
#        183917
#        199802
#        220101
#        234051
#        253799
#        272190
#        285438
#
# Disc length: 4031 seconds
#
# Revision: 0
# Processed by: cddbd v1.5.1PL0 Copyright (c) Steve Scherf et al.
# Submitted via: ExactAudioCopy v0.95a3
#
DISCID=fc0fbd12
DTITLE=Various Artist - Hit Courier RadioPress Август 2001
DYEAR=2001
DGENRE=Pop
TTITLE0=Марк Tvен - Куба
TTITLE1=Юлия Арзамасова - Тихий Дождь
TTITLE2=Влад Сташевский - Без Тебя, Без Любви
TTITLE3=Оркестр Палата №6 - Лётчик
TTITLE4=Spasibo - Маруся
TTITLE5=Кати and Co - А В Небе, А В Море
TTITLE6=Ольга Дворянинова - Ой, Милый Мой
TTITLE7=С.Т.Д.К. - Юг
TTITLE8=Юлия Арзамосова - Гуляла - Гуляла
TTITLE9=Окестр Палата №6 - Центрифуга
TTITLE10=Час Пик - Жизнь На Колёсах
TTITLE11=Василий Савченко - Русские
TTITLE12=Божья Коровка - Музыкальный Доктор
TTITLE13=Дилижанс - Лунная Дорога
TTITLE14=Марк Tvен - Улетает Лето
TTITLE15=Юлия Арзамасова - Люди-Реки
TTITLE16=Оркестр Палата №6 - Попка
TTITLE17=Вариант К - Дождь
EXTD=
EXTT0=
EXTT1=
EXTT2=
EXTT3=
EXTT4=
EXTT5=
EXTT6=
EXTT7=
EXTT8=
EXTT9=
EXTT10=
EXTT11=
EXTT12=
EXTT13=
EXTT14=
EXTT15=
EXTT16=
EXTT17=
PLAYORDER=
